<?xml version="1.0" encoding="utf-8"?>
<svg viewBox="29.12 0.14 51.183 40.711" width="51.183" height="40.711" xmlns="http://www.w3.org/2000/svg">
  <path d="M61.5139 11.1569C60.4527 11.1569 59.4549 11.568 58.708 12.3148L55.6899 15.3248C54.8757 16.1368 54.4574 17.2643 54.5431 18.4202C54.5492 18.4833 54.5553 18.5464 54.5615 18.6115C54.6696 19.4988 55.0594 20.2986 55.6899 20.9254C56.1246 21.3589 56.6041 21.6337 57.1857 21.825C57.2163 22 57.2326 22.177 57.2326 22.3541C57.2326 23.1519 56.9225 23.9008 56.3592 24.4625L56.1735 24.6477C55.1655 24.3037 54.3247 23.8011 53.5656 23.044C52.5576 22.0386 51.8903 20.7687 51.6393 19.3747L51.6046 19.1813L51.4515 19.3055C51.3475 19.3889 51.2495 19.4785 51.1577 19.57L48.1396 22.58C46.5928 24.1226 46.5928 26.636 48.1396 28.1786C48.913 28.9499 49.9292 29.3366 50.9475 29.3366C51.9658 29.3366 52.98 28.9499 53.7534 28.1786L56.7715 25.1687C58.3183 23.626 58.3183 21.1147 56.7715 19.57C56.3592 19.159 55.8675 18.8496 55.3104 18.6502C55.2798 18.469 55.2634 18.2879 55.2634 18.1109C55.2634 17.2439 55.6063 16.4217 56.2348 15.7949C57.2449 16.1388 58.1407 16.6965 58.8978 17.4515C59.9038 18.4548 60.5691 19.7227 60.8241 21.1208L60.8588 21.3141L61.0119 21.19C61.116 21.1066 61.2139 21.017 61.3078 20.9234L64.3259 17.9135C65.8727 16.3708 65.8747 13.8575 64.3259 12.3148C63.577 11.568 62.5811 11.1569 61.518 11.1569H61.5139Z" style="fill: rgb(102, 102, 102);"/>
  <path d="M 59.897 0.149 L 52.358 0.14 C 41.106 0.14 31.952 9.269 31.952 20.491 C 31.952 24.674 34.205 27.771 35.402 31.804 L 29.12 40.533 L 39.141 35.985 C 42.704 39.012 47.321 40.842 52.358 40.842 L 59.897 40.851 C 71.149 40.851 80.303 31.722 80.303 20.5 C 80.303 9.278 71.149 0.149 59.897 0.149 Z M 66.445 20.032 L 63.427 23.042 C 62.623 23.844 61.629 24.442 60.552 24.77 L 60.497 24.786 L 60.476 24.839 C 60.125 25.763 59.593 26.587 58.891 27.285 L 55.872 30.295 C 54.556 31.608 52.805 32.33 50.94 32.33 C 49.075 32.33 47.324 31.608 46.008 30.295 C 43.288 27.582 43.288 23.17 46.008 20.457 L 49.026 17.447 C 49.834 16.642 50.802 16.061 51.897 15.726 L 51.952 15.709 L 51.973 15.657 C 52.324 14.733 52.858 13.906 53.563 13.202 L 56.581 10.192 C 57.897 8.88 59.648 8.157 61.513 8.157 C 63.378 8.157 65.129 8.88 66.445 10.192 C 67.761 11.505 68.486 13.251 68.486 15.111 C 68.486 16.971 67.761 18.719 66.445 20.03 L 66.445 20.032 Z" style="fill: rgb(102, 102, 102);"/>
</svg>